<svg xmlns="http://www.w3.org/2000/svg" width="500" height="500" version="1.2" viewBox="0 0 375 375"><defs><clipPath id="a"><path d="M100 126h215v111H100Zm0 0"/></clipPath><clipPath id="b"><path d="M50.172 146.441 313.55 119.54l11.125 108.934-263.38 26.902Zm0 0"/></clipPath><clipPath id="c"><path d="M50.172 146.441 313.55 119.54l11.125 108.934-263.38 26.902Zm0 0"/></clipPath><clipPath id="d"><path d="M50 146h116v70H50Zm0 0"/></clipPath><clipPath id="e"><path d="M50.172 146.441 313.55 119.54l11.125 108.934-263.38 26.902Zm0 0"/></clipPath><clipPath id="f"><path d="M50.172 146.441 313.55 119.54l11.125 108.934-263.38 26.902Zm0 0"/></clipPath></defs><g clip-path="url(#a)"><g clip-path="url(#b)"><g clip-path="url(#c)"><path d="M242.55 165.977c.747 2.011 1.122 3.976 1.16 5.71l68.974-27.933c2.37-1.078 2.52-5.863.328-10.688-2.188-4.832-5.883-7.87-8.254-6.8l-66.25 33.363c1.574 1.41 3.035 3.629 4.043 6.348m-142.073 55.875c1.609 3.55 32.43 26.226 75.168 6.855 27.69-12.555 38.808-32.984 42.765-46.773l23.668-9.586c.055-1.625-.254-3.637-1.058-5.801-1.07-2.899-2.641-5.02-4.094-6.117l-16.649 8.382c-.054-.523-.144-.914-.25-1.148-2.918-6.441-32.05.465-65.062 15.43a321 321 0 0 0-18.649 9.172c.446.43.926.828 1.45 1.195a321 321 0 0 1 17.918-8.785c31.468-14.266 59.164-21.008 61.316-16.266 2.148 4.746-21.617 20.153-53.086 34.422-31.473 14.266-58.723 21.984-60.871 17.238-.418-.918.121-2.273 1.488-3.957a45 45 0 0 1-1.836-.422c-2.086 2.54-2.902 4.649-2.218 6.16m0 0" style="stroke:none;fill-rule:nonzero;fill:#2b302d;fill-opacity:1"/></g></g></g><g clip-path="url(#d)"><g clip-path="url(#e)"><g clip-path="url(#f)"><path d="M99.75 158.426c-.844-6.832-10.066-3.309-12.488-8.301 1.972 9.46 5.636 4.441 12.488 8.3m-29.84.504c-9.637-6.754-3.875-14.098-19.508-11.64 8.996.476 8.532 14.167 19.508 11.64m23.535 33.101c4.938 2.16 3.086 5.145-1.773 5.356-3.117.14-7.25-1.442-11.953-4.211 11.875 30.379 52.715 27.183 85.324 3.355-8.137 3.301-19.723 2.867-26.48-.39-14.625-7.043-5.586-33.504-28.56-32.582 2.727 1.668 5.536 2.859 6.34 6.5-14-8.825-23.706-7.29-33.503-3.786-9.895 3.536-21.742 1.555-30.82-7.453 8.707 31.266 28.316 27.473 41.425 33.211m-20-11.933c-4.07-1.961-7.175-4.754-9.605-8.075 18.457 5.372 30.96-9.113 49.605 2.637 12.47 7.86 13.223 24.973 29.23 28.582-14.87 6.528-36.183 11.02-49.84-.488 4.02-.418 8.224-2.45 8.888-6.883 1.675-11.242-21.602-12.555-28.278-15.773m-5.664 10.238c5.414 1.23 4.063 11.012 10.914 10.285-5.312-5.8-1.25-10.504-10.914-10.285m0 0" style="stroke:none;fill-rule:evenodd;fill:#f8961e;fill-opacity:1"/></g></g></g></svg>